<?xml version="1.0" ?><svg data-name="Layer 1" id="Layer_1" viewBox="0 0 512 512" xmlns="http://www.w3.org/2000/svg"><title/><path d="M294.98,212.4h-9.675a2.687,2.687,0,0,0-2.688,2.688v36.7l-28.226-37.8a3.945,3.945,0,0,0-3.161-1.584h-8.94a2.687,2.687,0,0,0-2.687,2.688v61.043a2.688,2.688,0,0,0,2.687,2.688h9.677a2.689,2.689,0,0,0,2.688-2.688V239.779l27.962,37.451a3.939,3.939,0,0,0,3.158,1.584h9.205a2.689,2.689,0,0,0,2.689-2.688V215.083A2.688,2.688,0,0,0,294.98,212.4Z"/><path d="M203.49,263.762H176.757V215.083a2.687,2.687,0,0,0-2.687-2.688h-9.677a2.687,2.687,0,0,0-2.687,2.688v61.043a2.688,2.688,0,0,0,2.687,2.688h39.1a2.689,2.689,0,0,0,2.689-2.688V266.45A2.688,2.688,0,0,0,203.49,263.762Z"/><path d="M217.483,212.395h9.675a2.688,2.688,0,0,1,2.688,2.688v61.043a2.688,2.688,0,0,1-2.688,2.688h-9.675a2.689,2.689,0,0,1-2.689-2.689V215.083A2.689,2.689,0,0,1,217.483,212.395Z"/><path d="M256,0C114.615,0,0,114.615,0,256S114.615,512,256,512,512,397.385,512,256,397.385,0,256,0Zm72.408,346.812c-37.4,29.84-63.847,43.359-77.344,49.062a5.626,5.626,0,0,1-7.694-6.337,200.971,200.971,0,0,0,3.122-20.659,12.443,12.443,0,0,0-10.808-13.6C168.693,346.7,116,300.062,116,243.154c0-63.043,62.68-114.149,140-114.149s140,51.106,140,114.149C396,286.453,367.52,315.607,328.408,346.812Z"/><path d="M349.087,212.4h-39.1a2.688,2.688,0,0,0-2.689,2.688v61.043a2.689,2.689,0,0,0,2.689,2.688h39.1a2.689,2.689,0,0,0,2.689-2.689V266.45a2.688,2.688,0,0,0-2.689-2.688H322.354V253.13h26.733a2.689,2.689,0,0,0,2.689-2.688v-9.676a2.689,2.689,0,0,0-2.689-2.689H322.354v-10.63h26.733a2.689,2.689,0,0,0,2.689-2.689v-9.675A2.688,2.688,0,0,0,349.087,212.4Z"/></svg>